# xmcd
#
# Track frame offsets:
#	150
#	18764
#	39895
#	54256
#	71851
#	90143
#	104119
#	121677
#	139653
#	153287
#	170868
#
# Disc length: 2307 seconds
#
# Revision: 1
# Processed by: cddbd v1.5.2PL0 Copyright (c) Steve Scherf et al.
# Submitted via: audiograbber 1.83.01
#
DISCID=8409010b
DTITLE=Sharron Kay King - Don't Stop Believing
DYEAR=2008
DGENRE=
TTITLE0=A Little Hope
TTITLE1=No Not One
TTITLE2=Look Up
TTITLE3=Don't Stop Believing
TTITLE4=The Stone Was Rolled Away
TTITLE5=The Music Of My heart
TTITLE6=God's Been Good
TTITLE7=I Was On His Mind
TTITLE8=I Wouldn't Take nothing For My Journey Now
TTITLE9=Waiting On Me
TTITLE10=Bonus Track
EXTD=
EXTT0=
EXTT1=
EXTT2=
EXTT3=
EXTT4=
EXTT5=
EXTT6=
EXTT7=
EXTT8=
EXTT9=
EXTT10=
PLAYORDER=
